<svg viewBox="0 0 520 600" xmlns="http://www.w3.org/2000/svg" aria-label="India service network map">
  <defs>
    <filter id="shadow" x="-20%" y="-20%" width="140%" height="140%">
      <feDropShadow dx="0" dy="2" stdDeviation="3" flood-opacity="0.12"/>
    </filter>
  </defs>
  <rect width="520" height="600" fill="#f1f5f9" rx="14"/>
  <text x="260.0" y="32" text-anchor="middle" fill="#475569" font-size="13" font-weight="700" font-family="Inter,system-ui,sans-serif" letter-spacing="1.5">INDIA — SERVICE NETWORK</text>
  <g filter="url(#shadow)"><path d="M 415.6,472.1 L 416.4,473.2 L 415.9,476.6 L 417.0,477.6 L 416.5,480.8 L 414.3,483.0 L 413.2,478.6 L 414.2,478.0 L 414.4,474.3 L 415.6,472.1 Z" fill="#e8edf2" fill-opacity="1" stroke="#cbd5e1" stroke-width="0.5"/><path d="M 412.7,493.8 L 413.8,495.6 L 414.0,497.4 L 412.6,500.1 L 411.4,499.5 L 410.5,497.5 L 410.8,496.0 L 412.7,493.8 Z" fill="#e8edf2" fill-opacity="1" stroke="#cbd5e1" stroke-width="0.5"/><path d="M 416.8,470.9 L 417.9,472.7 L 416.2,474.4 L 416.8,470.9 Z" fill="#e8edf2" fill-opacity="1" stroke="#cbd5e1" stroke-width="0.5"/><path d="M 431.6,549.8 L 432.2,551.1 L 430.5,553.0 L 430.3,551.0 L 431.6,549.8 Z" fill="#e8edf2" fill-opacity="1" stroke="#cbd5e1" stroke-width="0.5"/><path d="M 426.3,540.4 L 427.7,541.9 L 425.9,542.6 L 425.5,540.7 L 426.3,540.4 Z" fill="#e8edf2" fill-opacity="1" stroke="#cbd5e1" stroke-width="0.5"/><path d="M 417.8,461.8 L 418.3,461.6 L 419.1,461.2 L 420.0,464.4 L 419.8,467.9 L 418.7,470.8 L 415.6,470.6 L 415.7,466.3 L 416.4,465.1 L 416.2,462.8 L 417.8,461.8 Z" fill="#e8edf2" fill-opacity="1" stroke="#cbd5e1" stroke-width="0.5"/><path d="M 418.3,461.6 L 417.8,461.8 L 417.0,459.4 L 417.8,453.7 L 418.3,452.1 L 420.1,451.2 L 421.7,454.3 L 420.8,456.8 L 420.9,458.4 L 419.3,458.8 L 418.0,460.9 L 418.3,461.6 Z" fill="#e8edf2" fill-opacity="1" stroke="#cbd5e1" stroke-width="0.5"/><path d="M 433.7,553.1 L 434.3,555.6 L 435.3,557.0 L 434.5,558.6 L 434.6,560.0 L 432.7,559.7 L 432.1,557.6 L 430.8,556.9 L 431.1,553.9 L 433.7,553.1 Z" fill="#e8edf2" fill-opacity="1" stroke="#cbd5e1" stroke-width="0.5"/><path d="M 417.0,520.6 L 417.6,522.3 L 416.1,522.5 L 415.9,521.1 L 417.0,520.6 Z" fill="#e8edf2" fill-opacity="1" stroke="#cbd5e1" stroke-width="0.5"/><path d="M 251.4,399.6 L 250.8,400.0 L 251.6,401.9 L 245.8,404.7 L 242.3,406.1 L 239.5,405.3 L 237.1,405.6 L 235.1,406.6 L 233.1,410.8 L 233.2,411.6 L 231.0,413.9 L 230.4,415.5 L 228.1,415.8 L 227.9,413.7 L 226.0,413.0 L 223.6,413.5 L 220.5,415.2 L 219.4,416.4 L 218.3,419.8 L 216.7,422.3 L 215.9,426.1 L 216.9,431.7 L 218.3,434.0 L 217.2,441.6 L 219.0,446.5 L 217.8,448.6 L 215.9,450.2 L 217.7,451.8 L 218.9,451.8 L 220.1,452.9 L 217.5,452.0 L 216.2,451.0 L 214.5,452.4 L 214.0,454.3 L 208.5,455.8 L 207.8,454.7 L 206.1,454.5 L 205.8,456.3 L 204.2,458.2 L 202.8,457.5 L 201.8,459.6 L 200.4,459.5 L 199.0,458.5 L 197.4,458.3 L 194.7,458.8 L 193.3,460.1 L 192.8,463.5 L 189.4,466.0 L 188.2,465.4 L 187.1,463.8 L 187.4,462.2 L 189.0,460.9 L 190.5,461.4 L 190.7,459.2 L 192.6,457.2 L 192.7,455.5 L 189.2,454.0 L 189.7,450.4 L 187.2,450.2 L 184.6,448.6 L 185.4,446.1 L 183.0,444.3 L 180.7,444.6 L 180.1,446.6 L 178.0,447.2 L 175.9,448.6 L 174.5,446.2 L 170.6,445.8 L 170.4,447.5 L 167.7,447.7 L 167.3,446.5 L 168.4,444.7 L 166.7,443.2 L 166.6,441.5 L 168.1,440.7 L 168.2,442.7 L 170.1,443.7 L 172.9,443.2 L 174.0,441.9 L 175.7,441.1 L 175.6,439.1 L 174.8,438.5 L 172.2,439.1 L 170.2,438.1 L 168.6,439.7 L 165.9,437.9 L 165.7,436.0 L 164.0,433.8 L 165.4,430.5 L 165.7,427.9 L 164.1,427.8 L 164.6,425.9 L 165.8,426.9 L 169.0,427.3 L 170.2,425.4 L 170.4,423.1 L 168.8,422.1 L 168.2,420.3 L 168.3,417.1 L 168.8,412.8 L 171.7,411.8 L 175.8,412.4 L 178.2,413.1 L 180.4,413.3 L 181.8,412.8 L 185.3,413.9 L 187.3,412.3 L 187.6,410.6 L 190.0,409.8 L 192.4,410.2 L 193.3,409.5 L 195.8,410.8 L 197.9,408.2 L 199.8,407.2 L 202.8,407.3 L 202.9,402.9 L 203.6,402.0 L 206.1,401.7 L 207.2,400.9 L 209.6,400.4 L 211.6,399.3 L 214.5,400.7 L 216.2,398.0 L 215.0,397.1 L 215.9,395.5 L 219.3,394.8 L 220.2,397.0 L 222.3,398.3 L 224.0,398.8 L 224.4,396.1 L 222.8,396.3 L 220.8,395.4 L 222.7,394.1 L 224.0,392.7 L 228.3,394.5 L 229.4,391.7 L 230.8,392.0 L 233.5,391.2 L 233.8,389.7 L 235.1,389.7 L 236.0,388.6 L 237.5,389.1 L 238.7,387.7 L 238.9,385.4 L 240.0,383.2 L 243.3,381.4 L 242.9,380.5 L 245.9,378.9 L 247.1,377.8 L 249.2,378.0 L 250.9,378.9 L 251.9,378.1 L 252.0,373.6 L 252.4,372.1 L 254.2,370.0 L 255.0,370.6 L 255.2,372.4 L 256.2,372.8 L 255.9,374.3 L 258.8,373.4 L 259.3,371.6 L 261.4,373.0 L 262.8,372.5 L 263.3,368.1 L 264.6,366.2 L 265.7,366.7 L 268.1,365.8 L 269.0,364.8 L 267.3,362.7 L 270.0,362.2 L 272.0,361.1 L 273.5,362.3 L 274.9,362.4 L 276.2,365.5 L 280.7,366.2 L 283.5,365.9 L 283.6,364.7 L 285.0,363.9 L 286.0,362.2 L 287.6,360.5 L 290.3,361.4 L 287.5,364.5 L 287.0,365.9 L 285.6,367.2 L 283.9,369.7 L 280.3,373.0 L 280.2,373.7 L 273.8,376.9 L 271.5,378.4 L 269.0,381.3 L 267.9,383.2 L 265.9,385.4 L 256.3,390.1 L 252.5,393.0 L 251.4,394.4 L 250.7,396.8 L 251.6,397.5 L 251.4,399.6 Z" fill="#e8edf2" fill-opacity="1" stroke="#cbd5e1" stroke-width="0.5"/><path d="M 455.6,238.0 L 455.2,235.3 L 455.6,234.7 L 455.0,232.2 L 459.1,230.7 L 460.0,228.5 L 461.2,229.2 L 464.6,228.2 L 466.2,228.2 L 468.0,226.9 L 464.3,222.8 L 463.8,221.0 L 466.5,218.5 L 467.3,217.2 L 464.9,217.1 L 461.5,217.4 L 460.0,218.6 L 457.9,219.2 L 456.9,218.8 L 452.4,220.3 L 443.4,223.9 L 440.1,222.5 L 440.2,224.4 L 438.6,225.1 L 437.1,227.0 L 435.4,228.1 L 432.9,230.7 L 431.0,233.4 L 428.0,233.9 L 425.8,233.5 L 420.6,234.2 L 418.3,232.8 L 414.9,232.3 L 413.8,233.5 L 411.8,233.5 L 408.9,234.5 L 406.2,234.6 L 406.2,232.8 L 405.1,231.8 L 404.9,230.3 L 405.4,226.4 L 404.8,225.1 L 399.0,225.0 L 397.6,222.6 L 398.6,221.4 L 398.7,219.9 L 401.8,219.8 L 403.2,221.3 L 405.4,220.6 L 407.9,219.0 L 409.5,220.3 L 412.4,219.3 L 413.4,219.6 L 416.2,216.9 L 415.0,215.7 L 415.4,214.6 L 417.2,213.4 L 418.7,213.4 L 420.7,211.8 L 423.8,211.3 L 423.2,209.6 L 424.7,208.5 L 425.6,206.3 L 428.1,205.6 L 430.1,206.0 L 433.6,205.2 L 434.9,205.8 L 436.1,204.1 L 436.0,203.1 L 438.5,201.2 L 439.5,199.1 L 441.7,198.0 L 442.9,196.8 L 444.9,196.8 L 446.0,194.8 L 449.9,197.5 L 452.2,198.4 L 455.8,198.7 L 456.1,199.5 L 458.4,199.9 L 459.5,199.3 L 460.4,197.0 L 461.1,196.9 L 464.2,194.7 L 467.0,194.3 L 468.9,193.0 L 470.6,194.9 L 471.8,197.9 L 470.0,199.6 L 471.6,201.4 L 473.1,200.0 L 474.5,199.9 L 475.9,201.0 L 477.4,204.1 L 476.9,205.0 L 474.1,207.5 L 473.5,210.3 L 476.8,209.2 L 478.2,209.1 L 483.4,211.6 L 484.9,210.7 L 486.2,211.8 L 487.9,212.2 L 489.2,213.5 L 488.8,214.7 L 490.0,216.3 L 489.6,218.4 L 487.5,218.2 L 483.9,220.8 L 481.8,222.8 L 482.1,225.4 L 486.2,230.7 L 484.6,231.1 L 481.7,229.1 L 480.3,227.1 L 477.3,226.9 L 475.1,227.8 L 471.4,228.3 L 468.2,229.7 L 466.7,232.0 L 464.6,232.6 L 463.4,234.7 L 461.5,235.8 L 460.3,235.6 L 458.6,237.8 L 456.7,238.5 L 455.6,238.0 Z" fill="#e8edf2" fill-opacity="1" stroke="#cbd5e1" stroke-width="0.5"/><path d="M 406.2,234.6 L 408.9,234.5 L 411.8,233.5 L 413.8,233.5 L 414.9,232.3 L 418.3,232.8 L 420.6,234.2 L 425.8,233.5 L 428.0,233.9 L 431.0,233.4 L 432.9,230.7 L 435.4,228.1 L 437.1,227.0 L 438.6,225.1 L 440.2,224.4 L 440.1,222.5 L 443.4,223.9 L 452.4,220.3 L 456.9,218.8 L 457.9,219.2 L 460.0,218.6 L 461.5,217.4 L 464.9,217.1 L 467.3,217.2 L 466.5,218.5 L 463.8,221.0 L 464.3,222.8 L 468.0,226.9 L 466.2,228.2 L 464.6,228.2 L 461.2,229.2 L 460.0,228.5 L 459.1,230.7 L 455.0,232.2 L 453.6,233.4 L 451.7,234.2 L 450.1,234.0 L 448.8,236.0 L 446.9,237.2 L 444.7,237.6 L 442.5,239.1 L 442.4,240.5 L 439.0,241.6 L 438.9,243.5 L 437.8,243.8 L 436.2,246.3 L 435.4,249.0 L 435.8,250.4 L 434.2,251.6 L 432.2,250.1 L 431.5,251.5 L 429.4,253.0 L 428.2,254.7 L 425.6,256.4 L 427.6,258.3 L 427.8,260.3 L 426.5,261.3 L 425.6,263.7 L 424.2,265.0 L 424.5,266.1 L 422.0,270.6 L 420.3,275.0 L 417.6,275.4 L 416.6,273.1 L 415.4,275.8 L 412.9,278.6 L 411.4,279.0 L 411.2,277.4 L 409.2,277.4 L 408.2,273.3 L 408.5,270.9 L 409.2,269.6 L 408.3,266.9 L 409.2,266.6 L 410.7,267.7 L 412.5,266.8 L 411.3,264.8 L 412.8,263.0 L 414.3,263.4 L 415.1,262.4 L 417.2,261.7 L 416.5,259.9 L 414.0,257.7 L 414.7,256.6 L 412.5,255.2 L 411.4,253.4 L 408.1,253.7 L 407.1,254.4 L 407.0,250.0 L 408.3,248.1 L 404.4,248.4 L 403.3,249.1 L 401.7,247.2 L 400.3,248.1 L 400.1,249.8 L 397.8,248.6 L 395.8,251.7 L 394.0,251.7 L 393.1,253.2 L 391.8,253.5 L 391.9,251.4 L 389.7,252.0 L 387.8,249.9 L 384.8,249.8 L 382.9,250.1 L 380.5,248.8 L 375.8,250.0 L 374.8,249.7 L 372.1,251.9 L 371.3,253.4 L 373.2,255.5 L 370.9,256.5 L 371.2,255.1 L 370.0,252.1 L 371.2,250.1 L 368.5,246.4 L 369.0,243.9 L 370.7,242.9 L 370.7,237.7 L 375.3,236.9 L 376.4,235.3 L 377.7,235.3 L 379.4,234.5 L 381.8,236.1 L 384.2,236.7 L 389.6,236.5 L 390.3,235.8 L 394.1,236.5 L 395.2,235.6 L 396.5,236.3 L 399.6,236.0 L 402.9,234.2 L 405.3,235.4 L 406.2,234.6 Z" fill="#e8edf2" fill-opacity="1" stroke="#cbd5e1" stroke-width="0.5"/><path d="M 343.1,240.4 L 345.0,241.4 L 346.0,243.4 L 343.7,245.0 L 340.9,247.8 L 338.9,248.4 L 338.6,251.2 L 340.0,251.5 L 339.8,252.8 L 342.2,254.1 L 341.7,255.8 L 337.6,258.7 L 339.1,260.8 L 338.0,261.7 L 336.4,260.3 L 334.3,259.9 L 333.1,261.4 L 330.7,261.7 L 330.2,263.9 L 327.9,264.9 L 328.1,267.2 L 327.1,268.5 L 326.4,271.7 L 324.5,271.1 L 323.3,272.6 L 322.1,271.5 L 320.4,272.4 L 319.4,271.7 L 317.8,273.1 L 317.0,275.5 L 315.4,274.3 L 314.6,272.5 L 313.3,271.6 L 311.9,271.7 L 311.8,270.1 L 310.6,268.9 L 309.1,269.6 L 307.9,268.5 L 305.7,268.2 L 303.2,271.7 L 301.7,272.6 L 298.5,273.0 L 294.9,274.8 L 292.4,275.5 L 292.2,274.0 L 290.8,272.9 L 285.4,276.0 L 283.6,275.1 L 283.4,273.4 L 281.2,272.5 L 280.0,273.7 L 279.0,271.6 L 277.1,272.6 L 273.8,273.3 L 270.4,273.0 L 271.0,271.4 L 268.6,268.8 L 268.1,267.4 L 268.1,263.3 L 267.8,262.4 L 271.0,260.1 L 272.3,260.0 L 274.0,258.6 L 275.1,258.6 L 277.0,256.2 L 279.5,255.0 L 283.3,254.4 L 284.3,253.2 L 286.0,254.3 L 288.1,252.4 L 286.6,251.1 L 285.0,250.8 L 280.9,248.7 L 278.6,246.7 L 280.8,245.1 L 281.0,243.0 L 279.4,242.9 L 276.7,240.7 L 279.0,240.3 L 279.6,238.7 L 282.6,239.4 L 283.4,238.0 L 282.3,236.0 L 279.1,234.6 L 278.9,232.2 L 277.3,231.4 L 277.9,229.6 L 276.7,228.7 L 276.0,227.2 L 276.2,225.9 L 278.7,225.9 L 279.8,225.0 L 282.3,225.6 L 282.9,226.7 L 288.1,227.4 L 289.2,229.4 L 288.4,232.1 L 291.4,232.6 L 293.6,234.3 L 297.2,235.1 L 297.4,236.8 L 299.4,237.1 L 304.1,235.0 L 305.7,236.2 L 305.6,238.5 L 307.5,239.9 L 310.3,238.3 L 312.9,239.1 L 315.0,239.1 L 318.4,240.4 L 321.4,242.3 L 323.0,242.0 L 325.9,240.5 L 328.2,242.6 L 331.5,242.5 L 333.0,242.0 L 335.2,242.9 L 338.1,241.5 L 341.3,242.7 L 342.9,242.0 L 343.1,240.4 Z" fill="#e8edf2" fill-opacity="1" stroke="#cbd5e1" stroke-width="0.5"/><path d="M 164.9,173.2 L 163.5,173.0 L 162.9,172.0 L 165.1,171.9 L 164.9,173.2 Z" fill="#e8edf2" fill-opacity="1" stroke="#cbd5e1" stroke-width="0.5"/><path d="M 267.6,279.9 L 270.5,281.0 L 271.3,283.7 L 273.5,284.4 L 273.8,286.6 L 274.7,288.0 L 278.6,288.9 L 277.7,291.5 L 279.4,292.4 L 278.8,295.5 L 280.3,296.4 L 280.6,298.3 L 284.1,298.1 L 282.8,301.5 L 281.8,303.1 L 279.5,303.6 L 278.3,305.5 L 278.9,306.4 L 278.3,308.0 L 276.1,308.3 L 274.4,310.0 L 272.7,310.3 L 271.0,313.0 L 270.9,314.5 L 271.7,316.4 L 270.2,316.9 L 270.1,318.1 L 268.5,320.2 L 267.8,322.1 L 268.7,323.6 L 266.7,324.0 L 265.5,327.9 L 264.4,328.5 L 261.8,327.3 L 260.6,327.7 L 256.7,327.7 L 256.5,329.5 L 254.4,331.7 L 254.0,333.0 L 252.2,332.0 L 252.0,334.0 L 252.5,336.2 L 251.8,337.3 L 253.5,339.4 L 252.9,340.9 L 253.2,343.0 L 252.9,345.4 L 256.1,346.6 L 257.9,346.5 L 257.8,349.1 L 253.7,347.9 L 252.1,349.1 L 250.3,346.3 L 249.5,346.7 L 245.8,344.7 L 244.6,345.7 L 244.3,347.8 L 247.6,349.8 L 247.4,353.8 L 248.6,355.7 L 249.6,355.8 L 249.1,358.2 L 250.1,361.1 L 250.5,364.0 L 249.4,364.2 L 249.2,365.9 L 246.2,367.5 L 246.0,369.2 L 242.9,372.1 L 239.3,374.5 L 238.5,379.2 L 237.0,381.9 L 234.9,381.8 L 233.4,381.1 L 231.4,382.1 L 230.0,377.4 L 226.7,375.9 L 227.6,374.6 L 226.6,372.1 L 225.1,370.3 L 222.8,368.5 L 220.5,369.2 L 219.4,367.1 L 220.6,365.4 L 219.4,363.7 L 220.3,360.2 L 221.2,359.5 L 222.6,357.1 L 224.1,356.0 L 224.8,357.5 L 227.0,357.9 L 228.5,356.7 L 229.2,355.0 L 228.2,353.4 L 225.5,352.6 L 225.6,351.3 L 222.5,349.2 L 223.7,346.5 L 223.7,344.5 L 221.4,344.0 L 221.2,342.4 L 223.2,341.9 L 224.9,340.9 L 224.4,339.9 L 225.0,336.5 L 223.7,333.9 L 223.7,331.2 L 222.3,331.2 L 221.8,330.0 L 222.4,327.3 L 225.2,326.1 L 225.5,324.8 L 226.7,322.5 L 226.5,318.6 L 227.9,318.0 L 228.3,315.0 L 229.5,312.0 L 230.9,312.9 L 231.2,310.2 L 232.7,309.1 L 232.7,306.8 L 234.4,306.6 L 236.0,305.4 L 238.5,305.9 L 240.6,305.2 L 241.3,303.7 L 243.0,303.2 L 243.1,299.8 L 245.8,298.4 L 245.7,296.4 L 247.1,296.4 L 249.1,295.4 L 249.6,292.4 L 248.3,291.3 L 246.3,291.0 L 245.4,289.1 L 244.0,289.4 L 242.5,288.5 L 240.5,289.5 L 240.4,288.0 L 241.8,286.0 L 240.4,283.9 L 241.4,282.7 L 243.3,284.6 L 245.4,283.6 L 247.4,284.4 L 249.9,284.2 L 251.9,284.7 L 256.0,284.4 L 257.1,283.0 L 259.5,282.1 L 261.5,283.5 L 263.9,283.5 L 265.5,282.8 L 267.6,279.9 Z" fill="#e8edf2" fill-opacity="1" stroke="#cbd5e1" stroke-width="0.5"/><path d="M 67.9,333.9 L 69.0,330.3 L 71.3,331.0 L 71.5,333.0 L 70.6,333.9 L 71.3,334.8 L 70.3,335.1 L 67.9,333.9 Z" fill="#e8edf2" fill-opacity="1" stroke="#cbd5e1" stroke-width="0.5"/><path d="M 170.7,202.6 L 173.1,206.8 L 173.1,208.4 L 171.6,208.8 L 170.4,210.1 L 168.9,208.3 L 165.9,208.4 L 165.2,207.7 L 167.1,205.3 L 166.9,203.4 L 169.0,202.4 L 170.7,202.6 Z" fill="#e8edf2" fill-opacity="1" stroke="#cbd5e1" stroke-width="0.5"/><path d="M 108.1,344.3 L 106.9,345.0 L 104.2,344.2 L 104.2,342.9 L 106.4,342.6 L 108.1,344.3 Z" fill="#e8edf2" fill-opacity="1" stroke="#cbd5e1" stroke-width="0.5"/><path d="M 115.4,415.6 L 119.6,415.3 L 120.9,417.5 L 122.4,416.8 L 124.5,416.7 L 124.5,419.4 L 125.8,422.6 L 125.2,426.7 L 123.8,428.6 L 122.0,429.0 L 119.9,426.3 L 118.5,420.9 L 116.7,419.3 L 115.4,415.6 Z" fill="#e8edf2" fill-opacity="1" stroke="#cbd5e1" stroke-width="0.5"/><path d="M 31.4,284.7 L 32.5,284.8 L 31.9,287.1 L 30.0,287.2 L 31.4,284.7 Z" fill="#f97316" fill-opacity="0.95" stroke="#c2410c" stroke-width="1"/><path d="M 74.8,270.5 L 77.8,271.7 L 80.8,270.6 L 83.5,271.2 L 86.9,270.6 L 88.0,271.3 L 89.7,270.1 L 91.5,271.5 L 92.5,271.2 L 93.5,272.8 L 94.5,272.5 L 96.2,274.9 L 97.5,273.3 L 99.9,274.1 L 100.4,275.6 L 102.6,275.6 L 103.5,276.2 L 104.7,273.9 L 106.4,274.6 L 107.3,275.8 L 106.0,278.5 L 108.2,279.9 L 111.2,280.7 L 111.4,282.6 L 110.4,283.7 L 111.3,285.1 L 113.8,287.1 L 116.1,291.0 L 117.8,290.5 L 118.8,292.2 L 121.0,292.3 L 122.6,293.3 L 122.4,294.8 L 124.3,294.7 L 125.5,296.7 L 126.8,299.3 L 128.0,300.0 L 126.5,303.5 L 124.6,303.5 L 122.9,305.5 L 124.5,307.4 L 123.5,308.7 L 121.6,308.1 L 121.4,309.3 L 122.4,310.5 L 122.0,313.7 L 122.7,314.7 L 117.5,316.8 L 118.8,318.8 L 117.7,320.4 L 118.2,322.1 L 121.5,321.0 L 123.4,321.0 L 124.4,322.6 L 121.5,322.3 L 119.9,323.8 L 119.6,325.3 L 117.8,325.8 L 117.6,327.3 L 116.5,328.3 L 116.9,329.9 L 119.0,330.4 L 119.6,334.3 L 118.6,334.5 L 117.9,336.3 L 116.5,337.1 L 114.7,336.9 L 112.3,334.7 L 111.0,335.9 L 112.6,337.6 L 111.4,339.6 L 111.4,343.0 L 109.6,343.0 L 108.1,344.3 L 106.4,342.6 L 104.2,342.9 L 102.7,342.7 L 101.5,344.3 L 100.5,344.1 L 100.8,341.6 L 102.8,338.2 L 103.0,336.8 L 101.4,331.8 L 98.2,325.4 L 98.8,320.1 L 97.4,319.3 L 97.9,316.8 L 96.8,314.6 L 97.5,311.5 L 97.4,310.0 L 94.6,310.6 L 92.9,315.5 L 93.1,318.1 L 93.7,319.9 L 92.4,323.0 L 90.2,326.1 L 90.7,326.9 L 88.5,328.2 L 86.0,328.9 L 82.0,330.9 L 80.0,332.2 L 76.4,333.3 L 74.3,334.4 L 71.3,334.8 L 70.6,333.9 L 71.5,333.0 L 71.3,331.0 L 69.0,330.3 L 67.9,333.9 L 64.2,332.5 L 58.9,328.4 L 52.7,321.4 L 45.2,314.8 L 40.9,310.1 L 40.5,308.9 L 41.3,307.2 L 44.6,307.0 L 44.0,308.8 L 45.2,309.7 L 50.4,308.1 L 51.9,308.1 L 53.0,306.2 L 54.1,307.4 L 56.6,305.3 L 57.9,304.8 L 59.9,305.0 L 62.1,301.6 L 62.8,298.8 L 61.1,298.0 L 59.4,298.9 L 54.1,300.1 L 52.7,301.9 L 50.3,301.1 L 49.0,301.4 L 47.1,300.5 L 44.6,300.3 L 38.6,296.6 L 37.7,296.4 L 35.1,294.2 L 35.8,292.1 L 33.7,290.1 L 33.5,287.5 L 37.1,283.8 L 34.8,283.4 L 34.4,282.1 L 37.6,282.1 L 37.9,276.7 L 39.1,278.1 L 40.7,277.0 L 41.5,277.8 L 43.0,277.1 L 44.7,277.7 L 46.4,277.0 L 49.4,277.4 L 51.0,277.0 L 53.0,278.7 L 57.3,278.8 L 59.2,276.8 L 66.4,274.7 L 66.4,277.4 L 70.0,277.9 L 73.1,275.7 L 73.4,271.3 L 74.8,270.5 Z" fill="#f97316" fill-opacity="0.95" stroke="#c2410c" stroke-width="1"/><path d="M 150.0,142.5 L 150.8,141.4 L 150.6,139.6 L 148.8,137.8 L 149.9,136.8 L 151.2,137.5 L 153.5,135.6 L 155.8,135.1 L 158.2,132.6 L 161.2,132.3 L 163.5,132.8 L 165.9,133.8 L 167.8,135.8 L 169.9,136.0 L 173.4,138.5 L 177.0,136.6 L 179.0,136.1 L 182.2,139.5 L 182.0,140.6 L 183.3,142.4 L 185.0,141.1 L 186.9,141.0 L 189.4,139.5 L 189.7,141.8 L 188.3,142.5 L 188.5,144.2 L 190.1,143.6 L 191.8,145.1 L 190.9,147.3 L 192.9,148.3 L 192.6,149.3 L 195.7,151.9 L 194.5,155.2 L 195.2,156.9 L 196.7,158.1 L 194.7,159.7 L 196.1,160.7 L 196.7,162.7 L 197.9,163.9 L 199.3,166.2 L 197.3,166.3 L 196.1,164.7 L 193.8,164.9 L 193.0,164.2 L 191.0,164.8 L 189.2,163.4 L 185.0,165.0 L 181.8,165.6 L 180.4,168.6 L 180.2,170.4 L 178.7,171.8 L 180.1,173.5 L 179.3,174.6 L 180.4,176.0 L 176.7,177.7 L 176.9,178.0 L 174.4,177.7 L 173.3,176.8 L 171.0,176.5 L 170.2,173.1 L 168.0,172.3 L 166.2,169.7 L 164.2,169.6 L 161.6,168.0 L 162.0,164.6 L 159.1,163.1 L 157.7,161.3 L 156.7,162.9 L 154.7,163.1 L 154.4,161.4 L 152.1,157.6 L 150.8,154.8 L 150.3,152.7 L 147.1,150.9 L 146.1,148.1 L 147.8,147.4 L 149.5,145.7 L 150.9,145.1 L 149.7,143.6 L 150.0,142.5 Z" fill="#e8edf2" fill-opacity="1" stroke="#cbd5e1" stroke-width="0.5"/><path d="M 164.2,169.6 L 166.2,169.7 L 168.0,172.3 L 170.2,173.1 L 171.0,176.5 L 173.3,176.8 L 174.4,177.7 L 176.9,178.0 L 174.3,182.5 L 172.1,183.5 L 170.6,185.8 L 170.1,189.0 L 169.1,190.7 L 170.0,193.3 L 169.6,194.4 L 169.7,198.8 L 171.2,200.4 L 170.7,202.6 L 169.0,202.4 L 166.9,203.4 L 167.1,205.3 L 165.2,207.7 L 165.9,208.4 L 168.9,208.3 L 170.4,210.1 L 171.6,208.8 L 173.1,208.4 L 175.3,210.0 L 175.6,212.1 L 175.4,216.0 L 176.0,217.8 L 172.1,219.8 L 169.8,220.3 L 168.4,219.6 L 167.3,222.2 L 165.9,221.6 L 166.8,218.0 L 166.5,216.7 L 167.2,214.4 L 165.4,213.0 L 164.5,214.1 L 160.5,216.1 L 159.4,214.2 L 158.0,214.4 L 154.5,216.7 L 153.4,218.8 L 151.4,218.9 L 152.2,216.1 L 151.0,215.2 L 152.8,213.1 L 150.3,210.3 L 146.2,207.8 L 145.0,206.7 L 144.3,203.1 L 143.1,200.2 L 142.2,199.3 L 142.5,196.2 L 137.9,196.8 L 135.5,195.9 L 135.1,194.6 L 133.7,193.9 L 132.4,194.7 L 129.9,194.6 L 129.2,193.7 L 130.1,191.9 L 129.4,191.4 L 130.0,188.3 L 127.8,187.7 L 129.2,186.5 L 128.6,185.2 L 130.5,185.5 L 133.1,184.4 L 134.9,185.1 L 136.1,186.6 L 137.3,186.2 L 139.1,186.9 L 139.9,188.3 L 138.7,189.7 L 140.7,190.6 L 143.2,187.4 L 144.3,188.2 L 147.4,187.4 L 149.3,187.3 L 150.1,188.4 L 152.6,188.4 L 154.9,186.1 L 155.0,184.0 L 156.0,182.6 L 158.2,182.2 L 159.9,183.0 L 161.9,182.6 L 162.1,180.9 L 161.2,180.1 L 164.0,177.2 L 165.1,177.2 L 166.4,174.6 L 164.9,173.2 L 165.1,171.9 L 164.2,169.6 Z" fill="#e8edf2" fill-opacity="1" stroke="#cbd5e1" stroke-width="0.5"/><path d="M 270.4,273.0 L 273.8,273.3 L 277.1,272.6 L 279.0,271.6 L 280.0,273.7 L 281.2,272.5 L 283.4,273.4 L 283.6,275.1 L 285.4,276.0 L 290.8,272.9 L 292.2,274.0 L 292.4,275.5 L 294.9,274.8 L 298.5,273.0 L 301.7,272.6 L 303.2,271.7 L 305.7,268.2 L 307.9,268.5 L 309.1,269.6 L 310.6,268.9 L 311.8,270.1 L 311.9,271.7 L 313.3,271.6 L 314.6,272.5 L 315.4,274.3 L 317.0,275.5 L 317.8,273.1 L 319.4,271.7 L 320.4,272.4 L 322.1,271.5 L 323.3,272.6 L 324.5,271.1 L 326.4,271.7 L 327.1,268.5 L 328.1,267.2 L 327.9,264.9 L 330.2,263.9 L 330.7,261.7 L 333.1,261.4 L 334.3,259.9 L 336.4,260.3 L 338.0,261.7 L 337.9,263.8 L 339.5,264.8 L 341.0,267.0 L 339.6,267.7 L 339.6,272.4 L 338.3,272.7 L 338.4,274.9 L 337.6,276.6 L 335.7,278.1 L 336.5,279.1 L 333.4,279.6 L 333.2,281.3 L 329.4,280.8 L 330.3,283.1 L 327.6,284.8 L 324.0,283.4 L 322.8,284.6 L 322.3,286.6 L 320.8,286.5 L 318.2,287.5 L 316.8,287.5 L 315.5,288.9 L 315.7,289.9 L 313.7,290.9 L 310.6,289.7 L 307.7,290.1 L 307.9,292.5 L 307.1,293.4 L 308.5,295.6 L 310.4,295.4 L 313.2,297.8 L 314.5,297.5 L 316.7,298.9 L 316.4,301.3 L 317.8,302.5 L 319.6,303.0 L 320.1,304.6 L 321.8,304.6 L 323.8,309.1 L 322.5,310.4 L 321.2,310.4 L 320.0,309.7 L 315.4,308.3 L 314.3,306.7 L 310.2,305.5 L 309.4,310.0 L 310.3,310.9 L 308.3,314.5 L 306.1,314.1 L 304.2,312.4 L 302.6,312.5 L 300.3,311.3 L 298.8,312.2 L 297.7,313.9 L 296.8,312.8 L 294.4,312.1 L 295.2,309.5 L 295.0,306.2 L 292.4,307.1 L 286.6,307.1 L 285.0,308.3 L 282.8,308.4 L 280.7,307.4 L 280.4,306.3 L 278.3,305.5 L 279.5,303.6 L 281.8,303.1 L 282.8,301.5 L 284.1,298.1 L 280.6,298.3 L 280.3,296.4 L 278.8,295.5 L 279.4,292.4 L 277.7,291.5 L 278.6,288.9 L 274.7,288.0 L 273.8,286.6 L 273.5,284.4 L 271.3,283.7 L 270.5,281.0 L 267.6,279.9 L 268.8,277.2 L 268.4,276.4 L 268.7,273.4 L 270.4,273.0 Z" fill="#e8edf2" fill-opacity="1" stroke="#cbd5e1" stroke-width="0.5"/><path d="M 190.1,143.6 L 188.5,144.2 L 188.3,142.5 L 189.7,141.8 L 189.4,139.5 L 186.9,141.0 L 185.0,141.1 L 183.3,142.4 L 182.0,140.6 L 182.2,139.5 L 179.0,136.1 L 177.0,136.6 L 173.4,138.5 L 169.9,136.0 L 167.8,135.8 L 165.9,133.8 L 163.5,132.8 L 161.2,132.3 L 158.2,132.6 L 155.8,135.1 L 153.5,135.6 L 151.2,137.5 L 149.9,136.8 L 148.8,137.8 L 150.6,139.6 L 150.8,141.4 L 150.0,142.5 L 147.5,145.1 L 142.8,146.6 L 141.3,146.4 L 138.4,145.2 L 136.8,143.9 L 135.9,144.6 L 133.6,143.8 L 131.5,144.0 L 130.6,142.0 L 131.1,141.2 L 130.1,139.6 L 127.9,140.3 L 125.8,140.2 L 121.9,137.9 L 118.5,136.3 L 116.1,136.3 L 113.7,133.9 L 114.1,132.3 L 113.2,129.1 L 114.1,128.3 L 113.5,126.2 L 113.9,124.5 L 112.8,123.5 L 113.6,121.8 L 113.0,119.9 L 111.9,118.9 L 111.7,115.5 L 111.0,113.9 L 111.3,111.3 L 112.3,110.4 L 115.2,109.5 L 116.2,106.9 L 119.8,106.7 L 120.7,106.1 L 122.0,103.0 L 122.0,101.7 L 120.7,100.6 L 117.3,99.5 L 115.9,98.0 L 117.7,95.7 L 116.9,94.3 L 115.3,94.3 L 109.4,93.6 L 108.0,92.5 L 106.8,89.7 L 102.4,88.5 L 100.9,89.3 L 98.7,88.6 L 98.6,85.5 L 99.7,83.1 L 103.3,80.7 L 106.7,77.4 L 107.4,75.7 L 108.9,74.9 L 117.4,75.4 L 118.5,72.3 L 119.8,73.3 L 121.8,73.7 L 124.1,72.5 L 130.9,70.0 L 134.1,70.7 L 135.0,71.6 L 138.1,71.5 L 140.4,70.4 L 141.6,70.9 L 147.2,77.5 L 152.2,79.8 L 154.3,81.4 L 156.8,82.1 L 159.9,84.7 L 161.9,84.9 L 163.7,86.4 L 163.4,88.5 L 164.8,90.8 L 169.3,91.3 L 172.1,92.0 L 173.7,93.3 L 175.1,96.0 L 177.8,96.3 L 180.8,95.1 L 185.5,94.6 L 187.0,92.6 L 188.8,91.3 L 192.4,90.4 L 193.9,89.4 L 196.6,89.3 L 200.1,90.4 L 201.0,88.4 L 203.2,87.2 L 206.0,89.4 L 211.3,90.6 L 213.9,89.7 L 215.8,92.3 L 218.6,93.8 L 218.8,97.8 L 217.3,100.5 L 217.3,103.1 L 215.3,107.9 L 211.4,109.5 L 210.8,111.6 L 207.8,111.6 L 207.0,112.2 L 208.2,115.2 L 207.6,117.6 L 205.1,119.4 L 201.9,118.6 L 198.5,119.5 L 198.1,120.2 L 199.0,122.4 L 200.7,124.7 L 198.5,126.6 L 198.1,129.0 L 200.4,130.9 L 200.5,132.0 L 202.3,132.6 L 205.8,132.8 L 204.9,136.0 L 207.8,139.6 L 208.0,142.0 L 206.4,142.4 L 204.3,144.0 L 203.4,143.4 L 201.4,144.3 L 201.0,145.8 L 199.0,146.3 L 195.9,144.2 L 195.3,140.6 L 193.4,142.0 L 192.2,141.9 L 190.1,143.6 Z" fill="#e8edf2" fill-opacity="1" stroke="#cbd5e1" stroke-width="0.5"/><path d="M 122.4,416.8 L 123.7,415.1 L 126.2,414.8 L 126.6,412.7 L 128.2,409.7 L 128.4,407.4 L 125.5,405.9 L 125.6,402.2 L 129.1,400.9 L 130.5,401.8 L 131.5,399.5 L 133.9,398.6 L 135.3,395.9 L 137.7,395.8 L 139.6,397.5 L 140.8,395.7 L 143.6,395.2 L 144.0,395.9 L 146.9,395.6 L 146.9,393.4 L 146.1,392.2 L 146.6,390.7 L 145.8,390.0 L 146.3,387.2 L 148.9,388.9 L 150.9,389.7 L 155.9,388.9 L 157.4,389.3 L 157.9,387.9 L 157.2,385.3 L 159.7,384.2 L 160.3,382.6 L 163.5,383.0 L 164.7,380.9 L 166.5,380.1 L 166.6,376.8 L 167.1,375.7 L 168.7,376.3 L 172.8,371.4 L 174.3,372.4 L 175.1,374.5 L 176.5,374.0 L 178.0,378.8 L 176.5,381.7 L 176.7,382.8 L 174.9,383.7 L 174.7,385.5 L 178.6,386.7 L 174.9,388.9 L 173.5,392.3 L 175.1,393.2 L 175.7,394.8 L 174.9,396.4 L 175.1,401.7 L 172.3,404.6 L 177.1,405.7 L 175.4,408.6 L 175.8,412.4 L 171.7,411.8 L 168.8,412.8 L 168.3,417.1 L 168.2,420.3 L 168.8,422.1 L 170.4,423.1 L 170.2,425.4 L 169.0,427.3 L 165.8,426.9 L 164.6,425.9 L 164.1,427.8 L 165.7,427.9 L 165.4,430.5 L 164.0,433.8 L 165.7,436.0 L 165.9,437.9 L 168.6,439.7 L 170.2,438.1 L 172.2,439.1 L 174.8,438.5 L 175.6,439.1 L 175.7,441.1 L 174.0,441.9 L 172.9,443.2 L 170.1,443.7 L 168.2,442.7 L 168.1,440.7 L 166.6,441.5 L 166.7,443.2 L 168.4,444.7 L 167.3,446.5 L 167.7,447.7 L 170.4,447.5 L 170.6,445.8 L 174.5,446.2 L 175.9,448.6 L 178.0,447.2 L 180.1,446.6 L 180.7,444.6 L 183.0,444.3 L 185.4,446.1 L 184.6,448.6 L 187.2,450.2 L 189.7,450.4 L 189.2,454.0 L 192.7,455.5 L 192.6,457.2 L 190.7,459.2 L 190.5,461.4 L 189.0,460.9 L 187.4,462.2 L 187.1,463.8 L 185.5,463.5 L 184.3,462.3 L 183.3,463.1 L 182.3,461.7 L 180.4,463.2 L 179.3,465.2 L 177.1,465.3 L 176.9,467.7 L 177.7,468.2 L 177.3,470.2 L 175.1,472.7 L 179.3,473.2 L 179.9,474.2 L 178.2,477.0 L 175.4,477.0 L 174.4,480.0 L 172.3,479.2 L 169.4,479.8 L 167.9,479.1 L 166.2,479.5 L 164.9,482.5 L 160.8,482.3 L 160.0,480.8 L 158.7,481.5 L 154.9,478.2 L 153.7,478.4 L 153.7,476.4 L 151.9,477.2 L 150.1,476.9 L 148.8,474.8 L 147.5,474.9 L 145.3,473.5 L 142.0,468.6 L 139.7,466.8 L 138.6,465.0 L 134.1,463.7 L 133.4,462.1 L 131.4,454.1 L 131.0,449.5 L 130.0,445.7 L 128.4,443.2 L 126.0,435.4 L 125.3,435.1 L 124.6,432.0 L 123.7,431.9 L 122.4,430.5 L 122.0,429.0 L 123.8,428.6 L 125.2,426.7 L 125.8,422.6 L 124.5,419.4 L 124.5,416.7 L 122.4,416.8 Z" fill="#e8edf2" fill-opacity="1" stroke="#cbd5e1" stroke-width="0.5"/><path d="M 134.1,463.7 L 138.6,465.0 L 139.7,466.8 L 142.0,468.6 L 145.3,473.5 L 147.5,474.9 L 148.8,474.8 L 150.1,476.9 L 151.9,477.2 L 153.7,476.4 L 153.7,478.4 L 154.9,478.2 L 158.7,481.5 L 157.5,482.7 L 155.6,483.0 L 156.4,484.5 L 158.5,485.1 L 160.5,487.4 L 159.7,488.9 L 161.8,489.1 L 163.7,490.2 L 162.3,493.4 L 164.9,494.4 L 166.2,495.9 L 165.1,498.9 L 164.7,501.6 L 164.9,503.6 L 167.3,505.0 L 170.4,502.7 L 172.2,505.0 L 170.9,510.5 L 171.1,512.9 L 170.2,514.7 L 172.6,515.0 L 174.0,516.5 L 172.0,519.8 L 171.8,522.2 L 169.9,524.4 L 171.6,526.8 L 170.2,528.8 L 172.0,532.1 L 169.3,535.9 L 167.4,534.5 L 162.0,527.2 L 160.6,526.1 L 160.2,524.3 L 157.3,517.8 L 155.8,508.9 L 153.6,502.2 L 150.6,495.5 L 149.8,491.9 L 147.8,486.4 L 147.0,484.9 L 146.0,484.4 L 144.8,481.1 L 142.6,478.6 L 141.8,478.2 L 140.4,475.9 L 139.1,474.4 L 135.8,467.9 L 134.1,463.7 Z" fill="#e8edf2" fill-opacity="1" stroke="#cbd5e1" stroke-width="0.5"/><path d="M 101.4,488.0 L 101.2,488.7 L 100.9,489.3 L 101.2,488.3 L 101.4,488.0 Z" fill="#e8edf2" fill-opacity="1" stroke="#cbd5e1" stroke-width="0.5"/><path d="M 122.7,314.7 L 125.0,314.9 L 126.6,313.6 L 128.8,315.4 L 128.5,318.3 L 129.3,319.1 L 132.9,320.2 L 134.7,319.9 L 137.1,321.0 L 138.0,322.7 L 139.7,323.5 L 144.9,324.1 L 150.2,323.6 L 152.8,324.4 L 153.6,324.1 L 154.7,327.1 L 154.7,328.7 L 157.9,328.9 L 159.7,326.9 L 161.8,327.0 L 161.9,324.7 L 164.4,322.6 L 164.6,320.4 L 166.2,320.4 L 168.9,318.4 L 172.3,318.4 L 172.3,317.8 L 175.3,317.6 L 176.8,320.0 L 176.7,321.5 L 175.0,321.1 L 175.5,324.0 L 177.0,324.2 L 180.4,323.4 L 182.6,323.8 L 186.2,322.0 L 186.4,321.1 L 190.2,320.4 L 192.8,322.2 L 198.3,322.2 L 198.0,320.5 L 200.7,320.4 L 203.0,318.4 L 204.9,319.1 L 207.1,319.2 L 207.8,321.3 L 210.9,320.4 L 212.9,321.5 L 216.1,321.1 L 218.1,319.8 L 219.2,320.1 L 221.0,321.7 L 221.6,323.0 L 224.5,324.9 L 225.5,324.8 L 225.2,326.1 L 222.4,327.3 L 221.8,330.0 L 222.3,331.2 L 223.7,331.2 L 223.7,333.9 L 225.0,336.5 L 224.4,339.9 L 224.9,340.9 L 223.2,341.9 L 221.2,342.4 L 221.4,344.0 L 223.7,344.5 L 223.7,346.5 L 222.5,349.2 L 225.6,351.3 L 225.5,352.6 L 228.2,353.4 L 229.2,355.0 L 228.5,356.7 L 227.0,357.9 L 224.8,357.5 L 224.1,356.0 L 222.6,357.1 L 221.2,359.5 L 220.3,360.2 L 219.4,363.7 L 220.6,365.4 L 219.4,367.1 L 216.9,367.8 L 215.3,366.3 L 214.1,366.0 L 214.1,362.2 L 212.9,360.8 L 214.2,359.8 L 214.7,356.0 L 214.2,355.0 L 211.0,352.7 L 207.9,353.6 L 206.8,354.5 L 205.2,353.3 L 203.2,352.6 L 202.2,355.1 L 199.6,353.8 L 198.9,352.0 L 197.1,351.9 L 196.9,350.2 L 194.9,350.1 L 193.1,349.3 L 189.9,349.0 L 189.0,351.0 L 187.8,351.8 L 188.4,355.1 L 186.4,355.9 L 186.3,358.7 L 184.3,358.1 L 182.8,357.0 L 181.4,357.6 L 181.3,359.6 L 179.8,361.5 L 179.9,362.8 L 181.3,363.3 L 182.7,365.4 L 181.0,365.6 L 179.4,369.7 L 177.3,371.0 L 176.0,373.1 L 176.5,374.0 L 175.1,374.5 L 174.3,372.4 L 172.8,371.4 L 168.7,376.3 L 167.1,375.7 L 166.6,376.8 L 166.5,380.1 L 164.7,380.9 L 163.5,383.0 L 160.3,382.6 L 159.7,384.2 L 157.2,385.3 L 157.9,387.9 L 157.4,389.3 L 155.9,388.9 L 150.9,389.7 L 148.9,388.9 L 146.3,387.2 L 145.8,390.0 L 146.6,390.7 L 146.1,392.2 L 146.9,393.4 L 146.9,395.6 L 144.0,395.9 L 143.6,395.2 L 140.8,395.7 L 139.6,397.5 L 137.7,395.8 L 135.3,395.9 L 133.9,398.6 L 131.5,399.5 L 130.5,401.8 L 129.1,400.9 L 125.6,402.2 L 125.5,405.9 L 128.4,407.4 L 128.2,409.7 L 126.6,412.7 L 126.2,414.8 L 123.7,415.1 L 122.4,416.8 L 120.9,417.5 L 119.6,415.3 L 115.4,415.6 L 114.0,412.6 L 112.7,412.1 L 110.4,404.0 L 109.6,402.8 L 109.6,398.1 L 109.0,396.7 L 109.3,395.2 L 108.2,390.6 L 108.5,389.9 L 107.6,387.8 L 106.8,383.3 L 105.1,379.6 L 104.2,376.6 L 104.5,374.3 L 103.0,371.1 L 103.5,369.9 L 102.4,367.4 L 103.2,364.1 L 104.7,362.5 L 102.5,362.5 L 101.2,359.8 L 101.5,357.2 L 100.8,356.4 L 100.2,353.8 L 100.5,352.8 L 99.4,347.4 L 100.2,346.8 L 100.5,344.1 L 101.5,344.3 L 102.7,342.7 L 104.2,342.9 L 104.2,344.2 L 106.9,345.0 L 108.1,344.3 L 109.6,343.0 L 111.4,343.0 L 111.4,339.6 L 112.6,337.6 L 111.0,335.9 L 112.3,334.7 L 114.7,336.9 L 116.5,337.1 L 117.9,336.3 L 118.6,334.5 L 119.6,334.3 L 119.0,330.4 L 116.9,329.9 L 116.5,328.3 L 117.6,327.3 L 117.8,325.8 L 119.6,325.3 L 119.9,323.8 L 121.5,322.3 L 124.4,322.6 L 123.4,321.0 L 121.5,321.0 L 118.2,322.1 L 117.7,320.4 L 118.8,318.8 L 117.5,316.8 L 122.7,314.7 Z" fill="#f97316" fill-opacity="0.95" stroke="#c2410c" stroke-width="1"/><path d="M 370.9,256.5 L 373.2,255.5 L 371.3,253.4 L 372.1,251.9 L 374.8,249.7 L 375.8,250.0 L 380.5,248.8 L 382.9,250.1 L 384.8,249.8 L 387.8,249.9 L 389.7,252.0 L 391.9,251.4 L 391.8,253.5 L 393.1,253.2 L 394.0,251.7 L 395.8,251.7 L 397.8,248.6 L 400.1,249.8 L 400.3,248.1 L 401.7,247.2 L 403.3,249.1 L 404.4,248.4 L 408.3,248.1 L 407.0,250.0 L 407.1,254.4 L 408.1,253.7 L 411.4,253.4 L 412.5,255.2 L 414.7,256.6 L 414.0,257.7 L 416.5,259.9 L 417.2,261.7 L 415.1,262.4 L 414.3,263.4 L 412.8,263.0 L 411.3,264.8 L 408.2,263.7 L 405.6,262.2 L 399.9,262.7 L 398.5,262.4 L 396.2,263.1 L 393.1,262.0 L 390.1,262.1 L 386.7,262.8 L 385.4,262.3 L 381.1,262.5 L 380.1,263.0 L 378.4,262.2 L 374.8,261.6 L 372.5,260.4 L 370.6,260.3 L 370.7,257.6 L 370.9,256.5 Z" fill="#e8edf2" fill-opacity="1" stroke="#cbd5e1" stroke-width="0.5"/><path d="M 427.8,260.3 L 428.3,261.3 L 429.9,262.0 L 431.3,259.4 L 433.1,257.8 L 432.5,256.5 L 436.3,255.6 L 438.3,256.8 L 441.0,257.3 L 444.9,255.8 L 444.9,257.0 L 446.9,257.8 L 446.1,259.0 L 445.3,261.8 L 447.9,263.1 L 447.4,266.2 L 446.2,267.9 L 445.7,269.8 L 443.4,272.2 L 442.1,275.4 L 440.2,278.8 L 440.0,280.8 L 438.6,283.9 L 434.6,282.2 L 433.2,282.6 L 432.3,281.3 L 430.1,281.3 L 428.4,282.4 L 426.9,280.2 L 425.6,280.6 L 421.9,280.8 L 419.9,279.6 L 421.0,275.9 L 420.3,275.0 L 422.0,270.6 L 424.5,266.1 L 424.2,265.0 L 425.6,263.7 L 426.5,261.3 L 427.8,260.3 Z" fill="#e8edf2" fill-opacity="1" stroke="#cbd5e1" stroke-width="0.5"/><path d="M 186.9,235.5 L 189.1,234.9 L 189.7,235.7 L 192.5,236.8 L 194.9,236.1 L 197.2,237.7 L 199.2,238.0 L 199.2,239.7 L 200.3,240.9 L 201.5,243.5 L 199.9,244.8 L 199.4,247.8 L 198.5,248.5 L 196.5,252.3 L 195.4,253.2 L 196.3,255.2 L 193.8,256.1 L 191.2,255.9 L 190.0,256.7 L 188.2,259.2 L 189.7,262.1 L 188.7,263.9 L 188.7,265.3 L 186.2,267.2 L 187.8,270.7 L 187.8,274.3 L 190.4,276.7 L 191.5,275.1 L 192.7,275.7 L 194.1,277.5 L 195.6,277.3 L 197.4,277.9 L 198.8,275.8 L 199.1,274.4 L 197.5,271.1 L 195.8,271.9 L 195.6,267.5 L 193.4,265.9 L 192.5,261.1 L 193.1,258.5 L 195.6,259.5 L 195.5,257.6 L 198.0,256.9 L 196.8,259.6 L 197.3,262.6 L 199.5,261.3 L 201.3,262.6 L 203.1,263.4 L 203.8,262.1 L 203.5,260.3 L 204.8,259.9 L 205.9,261.1 L 205.7,263.5 L 207.1,264.0 L 208.8,263.2 L 211.1,263.0 L 212.9,263.7 L 212.7,261.4 L 215.1,260.9 L 215.5,259.7 L 217.1,259.8 L 218.2,258.6 L 220.0,259.0 L 219.9,260.6 L 221.8,262.5 L 220.7,262.9 L 219.4,264.8 L 223.2,263.7 L 225.8,264.4 L 227.8,262.9 L 228.9,264.1 L 228.3,266.4 L 230.2,266.5 L 233.5,266.0 L 235.1,264.2 L 235.2,262.6 L 238.4,263.1 L 239.9,262.1 L 241.7,264.6 L 244.9,265.4 L 245.1,267.0 L 250.5,269.3 L 250.3,270.6 L 253.2,271.8 L 253.0,270.4 L 257.1,270.2 L 258.7,271.0 L 257.9,275.3 L 258.8,276.8 L 257.9,280.2 L 259.5,282.1 L 257.1,283.0 L 256.0,284.4 L 251.9,284.7 L 249.9,284.2 L 247.4,284.4 L 245.4,283.6 L 243.3,284.6 L 241.4,282.7 L 240.4,283.9 L 241.8,286.0 L 240.4,288.0 L 240.5,289.5 L 242.5,288.5 L 244.0,289.4 L 245.4,289.1 L 246.3,291.0 L 248.3,291.3 L 249.6,292.4 L 249.1,295.4 L 247.1,296.4 L 245.7,296.4 L 245.8,298.4 L 243.1,299.8 L 243.0,303.2 L 241.3,303.7 L 240.6,305.2 L 238.5,305.9 L 236.0,305.4 L 234.4,306.6 L 232.7,306.8 L 232.7,309.1 L 231.2,310.2 L 230.9,312.9 L 229.5,312.0 L 228.3,315.0 L 227.9,318.0 L 226.5,318.6 L 226.7,322.5 L 225.5,324.8 L 224.5,324.9 L 221.6,323.0 L 221.0,321.7 L 219.2,320.1 L 218.1,319.8 L 216.1,321.1 L 212.9,321.5 L 210.9,320.4 L 207.8,321.3 L 207.1,319.2 L 204.9,319.1 L 203.0,318.4 L 200.7,320.4 L 198.0,320.5 L 198.3,322.2 L 192.8,322.2 L 190.2,320.4 L 186.4,321.1 L 186.2,322.0 L 182.6,323.8 L 180.4,323.4 L 177.0,324.2 L 175.5,324.0 L 175.0,321.1 L 176.7,321.5 L 176.8,320.0 L 175.3,317.6 L 172.3,317.8 L 172.3,318.4 L 168.9,318.4 L 166.2,320.4 L 164.6,320.4 L 164.4,322.6 L 161.9,324.7 L 161.8,327.0 L 159.7,326.9 L 157.9,328.9 L 154.7,328.7 L 154.7,327.1 L 153.6,324.1 L 152.8,324.4 L 150.2,323.6 L 144.9,324.1 L 139.7,323.5 L 138.0,322.7 L 137.1,321.0 L 134.7,319.9 L 132.9,320.2 L 129.3,319.1 L 128.5,318.3 L 128.8,315.4 L 126.6,313.6 L 125.0,314.9 L 122.7,314.7 L 122.0,313.7 L 122.4,310.5 L 121.4,309.3 L 121.6,308.1 L 123.5,308.7 L 124.5,307.4 L 122.9,305.5 L 124.6,303.5 L 126.5,303.5 L 128.0,300.0 L 126.8,299.3 L 125.5,296.7 L 126.6,295.9 L 128.5,296.3 L 131.0,294.4 L 130.6,293.5 L 128.6,292.4 L 130.1,290.2 L 133.8,288.7 L 135.3,285.8 L 134.7,283.5 L 136.1,281.0 L 134.3,278.0 L 132.8,276.4 L 133.4,274.0 L 131.7,273.2 L 133.1,268.6 L 134.5,270.9 L 136.2,270.0 L 136.3,268.6 L 134.0,268.3 L 133.4,266.5 L 136.9,267.6 L 138.1,267.1 L 138.7,264.6 L 141.7,264.6 L 141.6,265.9 L 140.4,267.1 L 141.0,268.3 L 140.4,269.6 L 143.4,270.3 L 145.9,270.3 L 148.2,269.1 L 150.7,272.2 L 150.6,274.1 L 148.7,273.8 L 147.7,274.9 L 148.4,277.9 L 148.0,279.2 L 148.3,281.5 L 146.8,281.0 L 145.4,281.6 L 144.3,280.7 L 143.4,282.8 L 145.4,284.7 L 147.7,283.8 L 150.1,283.4 L 151.6,282.6 L 151.4,281.1 L 154.1,280.0 L 153.9,278.3 L 157.2,277.4 L 160.4,278.9 L 161.7,277.6 L 164.7,279.6 L 166.2,279.4 L 166.9,278.2 L 165.3,276.0 L 165.4,273.9 L 167.8,273.8 L 168.8,272.3 L 168.2,270.0 L 165.4,269.3 L 164.7,268.2 L 166.6,267.7 L 165.5,265.1 L 167.7,264.0 L 169.0,264.4 L 170.5,263.5 L 172.6,263.9 L 174.1,263.5 L 174.2,261.6 L 172.6,258.2 L 171.0,260.3 L 169.0,259.8 L 167.1,260.5 L 162.8,259.7 L 161.5,259.0 L 160.2,256.7 L 160.4,252.4 L 162.2,250.6 L 164.7,249.9 L 166.0,247.6 L 167.6,246.9 L 169.7,245.2 L 171.0,245.2 L 173.1,243.3 L 174.6,243.2 L 178.3,240.9 L 180.6,240.1 L 183.5,237.7 L 184.9,238.0 L 185.1,236.2 L 186.9,235.5 Z" fill="#e8edf2" fill-opacity="1" stroke="#cbd5e1" stroke-width="0.5"/><path d="M 409.2,277.4 L 411.2,277.4 L 411.4,279.0 L 412.9,278.6 L 415.4,275.8 L 416.6,273.1 L 417.6,275.4 L 420.3,275.0 L 421.0,275.9 L 419.9,279.6 L 421.9,280.8 L 425.6,280.6 L 426.6,282.6 L 426.7,285.4 L 427.3,286.6 L 426.1,292.0 L 426.5,295.5 L 425.0,297.6 L 422.4,296.9 L 422.5,299.1 L 421.8,302.4 L 422.6,304.2 L 422.1,305.3 L 423.3,307.0 L 423.6,309.7 L 422.8,311.0 L 421.1,310.7 L 420.5,314.2 L 417.9,312.9 L 415.9,311.4 L 415.3,313.6 L 414.2,314.3 L 414.2,311.1 L 412.9,304.8 L 412.9,303.3 L 411.6,299.4 L 410.5,298.8 L 410.7,296.8 L 410.2,293.9 L 410.5,291.8 L 409.6,290.0 L 409.2,286.5 L 408.8,285.9 L 408.6,284.5 L 409.4,282.1 L 409.8,279.1 L 409.2,277.4 Z" fill="#e8edf2" fill-opacity="1" stroke="#cbd5e1" stroke-width="0.5"/><path d="M 455.0,232.2 L 455.6,234.7 L 455.2,235.3 L 455.6,238.0 L 452.9,241.6 L 454.0,242.8 L 453.8,247.3 L 454.8,247.8 L 452.1,251.2 L 452.7,252.9 L 450.9,254.5 L 450.4,256.1 L 448.9,257.3 L 446.9,257.8 L 444.9,257.0 L 444.9,255.8 L 441.0,257.3 L 438.3,256.8 L 436.3,255.6 L 432.5,256.5 L 433.1,257.8 L 431.3,259.4 L 429.9,262.0 L 428.3,261.3 L 427.8,260.3 L 427.6,258.3 L 425.6,256.4 L 428.2,254.7 L 429.4,253.0 L 431.5,251.5 L 432.2,250.1 L 434.2,251.6 L 435.8,250.4 L 435.4,249.0 L 436.2,246.3 L 437.8,243.8 L 438.9,243.5 L 439.0,241.6 L 442.4,240.5 L 442.5,239.1 L 444.7,237.6 L 446.9,237.2 L 448.8,236.0 L 450.1,234.0 L 451.7,234.2 L 453.6,233.4 L 455.0,232.2 Z" fill="#e8edf2" fill-opacity="1" stroke="#cbd5e1" stroke-width="0.5"/><path d="M 278.3,305.5 L 280.4,306.3 L 280.7,307.4 L 282.8,308.4 L 285.0,308.3 L 286.6,307.1 L 292.4,307.1 L 295.0,306.2 L 295.2,309.5 L 294.4,312.1 L 296.8,312.8 L 297.7,313.9 L 298.8,312.2 L 300.3,311.3 L 302.6,312.5 L 304.2,312.4 L 306.1,314.1 L 308.3,314.5 L 310.3,310.9 L 309.4,310.0 L 310.2,305.5 L 314.3,306.7 L 315.4,308.3 L 320.0,309.7 L 321.2,310.4 L 323.0,312.4 L 324.9,312.6 L 326.2,314.1 L 326.1,316.1 L 329.3,314.6 L 329.8,316.9 L 332.6,317.8 L 333.2,320.3 L 331.6,321.3 L 328.8,321.2 L 325.3,323.5 L 323.9,325.0 L 322.8,327.9 L 325.1,333.0 L 322.8,334.0 L 322.8,336.0 L 322.9,335.4 L 324.6,334.8 L 325.6,335.1 L 322.2,337.6 L 321.3,339.8 L 322.2,340.7 L 320.6,342.1 L 318.6,342.9 L 315.6,347.1 L 304.5,350.5 L 300.1,352.7 L 296.3,355.3 L 292.7,358.3 L 290.3,361.4 L 287.6,360.5 L 286.0,362.2 L 285.0,363.9 L 283.6,364.7 L 283.5,365.9 L 280.7,366.2 L 276.2,365.5 L 274.9,362.4 L 273.5,362.3 L 272.0,361.1 L 270.0,362.2 L 267.3,362.7 L 269.0,364.8 L 268.1,365.8 L 265.7,366.7 L 264.6,366.2 L 263.3,368.1 L 262.8,372.5 L 261.4,373.0 L 259.3,371.6 L 258.8,373.4 L 255.9,374.3 L 256.2,372.8 L 255.2,372.4 L 255.0,370.6 L 254.2,370.0 L 252.4,372.1 L 252.0,373.6 L 251.9,378.1 L 250.9,378.9 L 249.2,378.0 L 247.1,377.8 L 245.9,378.9 L 242.9,380.5 L 241.4,380.7 L 240.6,381.7 L 237.0,381.9 L 238.5,379.2 L 239.3,374.5 L 242.9,372.1 L 246.0,369.2 L 246.2,367.5 L 249.2,365.9 L 249.4,364.2 L 250.5,364.0 L 250.1,361.1 L 249.1,358.2 L 249.6,355.8 L 248.6,355.7 L 247.4,353.8 L 247.6,349.8 L 244.3,347.8 L 244.6,345.7 L 245.8,344.7 L 249.5,346.7 L 250.3,346.3 L 252.1,349.1 L 253.7,347.9 L 257.8,349.1 L 257.9,346.5 L 256.1,346.6 L 252.9,345.4 L 253.2,343.0 L 252.9,340.9 L 253.5,339.4 L 251.8,337.3 L 252.5,336.2 L 252.0,334.0 L 252.2,332.0 L 254.0,333.0 L 254.4,331.7 L 256.5,329.5 L 256.7,327.7 L 260.6,327.7 L 261.8,327.3 L 264.4,328.5 L 265.5,327.9 L 266.7,324.0 L 268.7,323.6 L 267.8,322.1 L 268.5,320.2 L 270.1,318.1 L 270.2,316.9 L 271.7,316.4 L 270.9,314.5 L 271.0,313.0 L 272.7,310.3 L 274.4,310.0 L 276.1,308.3 L 278.3,308.0 L 278.9,306.4 L 278.3,305.5 Z" fill="#e8edf2" fill-opacity="1" stroke="#cbd5e1" stroke-width="0.5"/><path d="M 324.6,334.8 L 322.9,335.4 L 322.8,336.0 L 322.8,334.0 L 324.6,334.8 Z" fill="#e8edf2" fill-opacity="1" stroke="#cbd5e1" stroke-width="0.5"/><path d="M 150.0,142.5 L 149.7,143.6 L 150.9,145.1 L 149.5,145.7 L 147.8,147.4 L 146.1,148.1 L 147.1,150.9 L 150.3,152.7 L 150.8,154.8 L 152.1,157.6 L 154.4,161.4 L 154.7,163.1 L 156.7,162.9 L 157.7,161.3 L 159.1,163.1 L 162.0,164.6 L 161.6,168.0 L 164.2,169.6 L 165.1,171.9 L 162.9,172.0 L 163.5,173.0 L 164.9,173.2 L 166.4,174.6 L 165.1,177.2 L 164.0,177.2 L 161.2,180.1 L 162.1,180.9 L 161.9,182.6 L 159.9,183.0 L 158.2,182.2 L 156.0,182.6 L 155.0,184.0 L 154.9,186.1 L 152.6,188.4 L 150.1,188.4 L 149.3,187.3 L 147.4,187.4 L 144.3,188.2 L 143.2,187.4 L 140.7,190.6 L 138.7,189.7 L 139.9,188.3 L 139.1,186.9 L 137.3,186.2 L 136.1,186.6 L 134.9,185.1 L 133.1,184.4 L 130.5,185.5 L 128.6,185.2 L 118.7,184.8 L 119.9,182.3 L 119.9,181.1 L 118.4,178.3 L 120.2,176.2 L 121.9,175.0 L 124.1,172.6 L 125.4,170.5 L 128.9,168.2 L 129.7,166.5 L 128.4,165.8 L 128.5,163.7 L 130.6,160.6 L 128.6,156.4 L 129.9,153.7 L 133.2,152.6 L 134.2,151.1 L 136.3,151.4 L 138.1,150.5 L 140.0,150.5 L 142.0,148.1 L 141.3,146.4 L 142.8,146.6 L 147.5,145.1 L 150.0,142.5 Z" fill="#e8edf2" fill-opacity="1" stroke="#cbd5e1" stroke-width="0.5"/><path d="M 212.0,479.1 L 211.0,477.5 L 212.6,476.9 L 212.0,479.1 Z" fill="#e8edf2" fill-opacity="1" stroke="#cbd5e1" stroke-width="0.5"/><path d="M 212.8,495.2 L 210.8,493.8 L 212.0,492.4 L 212.8,492.5 L 212.8,495.2 Z" fill="#e8edf2" fill-opacity="1" stroke="#cbd5e1" stroke-width="0.5"/><path d="M 119.9,181.1 L 119.9,182.3 L 118.7,184.8 L 128.6,185.2 L 129.2,186.5 L 127.8,187.7 L 130.0,188.3 L 129.4,191.4 L 130.1,191.9 L 129.2,193.7 L 129.9,194.6 L 132.4,194.7 L 133.7,193.9 L 135.1,194.6 L 135.5,195.9 L 137.9,196.8 L 142.5,196.2 L 142.2,199.3 L 143.1,200.2 L 144.3,203.1 L 145.0,206.7 L 146.2,207.8 L 150.3,210.3 L 152.8,213.1 L 151.0,215.2 L 152.2,216.1 L 151.4,218.9 L 153.4,218.8 L 154.5,216.7 L 158.0,214.4 L 159.4,214.2 L 160.5,216.1 L 164.5,214.1 L 165.4,213.0 L 167.2,214.4 L 166.5,216.7 L 166.8,218.0 L 165.9,221.6 L 167.3,222.2 L 168.4,219.6 L 169.8,220.3 L 172.1,219.8 L 173.2,222.3 L 173.1,224.3 L 174.6,225.4 L 174.6,226.4 L 176.9,227.6 L 178.4,229.6 L 176.6,232.3 L 178.9,232.9 L 174.5,235.0 L 175.4,236.3 L 179.1,234.8 L 179.7,233.9 L 181.8,234.7 L 185.3,233.6 L 187.7,234.1 L 186.9,235.5 L 185.1,236.2 L 184.9,238.0 L 183.5,237.7 L 180.6,240.1 L 178.3,240.9 L 174.6,243.2 L 173.1,243.3 L 171.0,245.2 L 169.7,245.2 L 167.6,246.9 L 166.0,247.6 L 164.7,249.9 L 162.2,250.6 L 160.4,252.4 L 160.2,256.7 L 161.5,259.0 L 162.8,259.7 L 167.1,260.5 L 169.0,259.8 L 171.0,260.3 L 172.6,258.2 L 174.2,261.6 L 174.1,263.5 L 172.6,263.9 L 170.5,263.5 L 169.0,264.4 L 167.7,264.0 L 165.5,265.1 L 166.6,267.7 L 164.7,268.2 L 165.4,269.3 L 168.2,270.0 L 168.8,272.3 L 167.8,273.8 L 165.4,273.9 L 165.3,276.0 L 166.9,278.2 L 166.2,279.4 L 164.7,279.6 L 161.7,277.6 L 160.4,278.9 L 157.2,277.4 L 153.9,278.3 L 154.1,280.0 L 151.4,281.1 L 151.6,282.6 L 150.1,283.4 L 147.7,283.8 L 145.4,284.7 L 143.4,282.8 L 144.3,280.7 L 145.4,281.6 L 146.8,281.0 L 148.3,281.5 L 148.0,279.2 L 148.4,277.9 L 147.7,274.9 L 148.7,273.8 L 150.6,274.1 L 150.7,272.2 L 148.2,269.1 L 145.9,270.3 L 143.4,270.3 L 140.4,269.6 L 141.0,268.3 L 140.4,267.1 L 141.6,265.9 L 141.7,264.6 L 138.7,264.6 L 138.1,267.1 L 136.9,267.6 L 133.4,266.5 L 134.0,268.3 L 136.3,268.6 L 136.2,270.0 L 134.5,270.9 L 133.1,268.6 L 131.7,273.2 L 133.4,274.0 L 132.8,276.4 L 134.3,278.0 L 136.1,281.0 L 134.7,283.5 L 135.3,285.8 L 133.8,288.7 L 130.1,290.2 L 128.6,292.4 L 130.6,293.5 L 131.0,294.4 L 128.5,296.3 L 126.6,295.9 L 125.5,296.7 L 124.3,294.7 L 122.4,294.8 L 122.6,293.3 L 121.0,292.3 L 118.8,292.2 L 117.8,290.5 L 116.1,291.0 L 113.8,287.1 L 111.3,285.1 L 110.4,283.7 L 111.4,282.6 L 111.2,280.7 L 108.2,279.9 L 106.0,278.5 L 107.3,275.8 L 106.4,274.6 L 104.7,273.9 L 103.5,276.2 L 102.6,275.6 L 100.4,275.6 L 99.9,274.1 L 97.5,273.3 L 96.2,274.9 L 94.5,272.5 L 93.5,272.8 L 92.5,271.2 L 91.5,271.5 L 89.7,270.1 L 88.0,271.3 L 86.9,270.6 L 83.5,271.2 L 80.8,270.6 L 77.8,271.7 L 74.8,270.5 L 72.2,266.4 L 71.4,263.0 L 69.4,261.0 L 68.0,259.0 L 68.2,256.9 L 67.8,254.0 L 63.6,254.5 L 61.7,253.9 L 58.8,250.0 L 58.6,247.9 L 60.0,245.1 L 60.0,240.2 L 58.4,239.4 L 55.4,239.7 L 49.5,237.0 L 49.2,236.0 L 49.6,232.6 L 50.7,230.2 L 55.1,226.4 L 57.6,223.9 L 59.8,219.4 L 63.1,216.6 L 66.2,216.4 L 67.9,218.1 L 68.0,219.3 L 69.3,221.3 L 71.3,221.6 L 77.4,219.2 L 79.6,218.9 L 83.5,218.8 L 87.3,217.4 L 87.8,214.6 L 88.8,213.3 L 91.8,210.9 L 93.6,205.9 L 94.9,204.3 L 100.1,201.5 L 103.7,200.0 L 106.1,196.4 L 108.9,191.5 L 110.8,185.3 L 114.3,183.9 L 117.1,183.2 L 119.9,181.1 Z" fill="#f97316" fill-opacity="0.95" stroke="#c2410c" stroke-width="1"/><path d="M 353.3,230.5 L 352.2,230.0 L 349.8,230.5 L 348.2,231.6 L 346.2,230.8 L 342.8,230.6 L 341.7,229.3 L 342.7,226.0 L 342.1,224.9 L 344.6,220.1 L 343.4,217.5 L 347.6,217.0 L 351.1,215.0 L 353.3,215.5 L 354.5,216.5 L 354.8,222.1 L 353.5,223.7 L 354.2,226.3 L 356.0,227.6 L 354.0,228.9 L 353.3,230.5 Z" fill="#e8edf2" fill-opacity="1" stroke="#cbd5e1" stroke-width="0.5"/><path d="M 176.5,374.0 L 176.0,373.1 L 177.3,371.0 L 179.4,369.7 L 181.0,365.6 L 182.7,365.4 L 181.3,363.3 L 179.9,362.8 L 179.8,361.5 L 181.3,359.6 L 181.4,357.6 L 182.8,357.0 L 184.3,358.1 L 186.3,358.7 L 186.4,355.9 L 188.4,355.1 L 187.8,351.8 L 189.0,351.0 L 189.9,349.0 L 193.1,349.3 L 194.9,350.1 L 196.9,350.2 L 197.1,351.9 L 198.9,352.0 L 199.6,353.8 L 202.2,355.1 L 203.2,352.6 L 205.2,353.3 L 206.8,354.5 L 207.9,353.6 L 211.0,352.7 L 214.2,355.0 L 214.7,356.0 L 214.2,359.8 L 212.9,360.8 L 214.1,362.2 L 214.1,366.0 L 215.3,366.3 L 216.9,367.8 L 219.4,367.1 L 220.5,369.2 L 222.8,368.5 L 225.1,370.3 L 226.6,372.1 L 227.6,374.6 L 226.7,375.9 L 230.0,377.4 L 231.4,382.1 L 233.4,381.1 L 234.9,381.8 L 237.0,381.9 L 240.6,381.7 L 241.4,380.7 L 242.9,380.5 L 243.3,381.4 L 240.0,383.2 L 238.9,385.4 L 238.7,387.7 L 237.5,389.1 L 236.0,388.6 L 235.1,389.7 L 233.8,389.7 L 233.5,391.2 L 230.8,392.0 L 229.4,391.7 L 228.3,394.5 L 224.0,392.7 L 222.7,394.1 L 220.8,395.4 L 222.8,396.3 L 224.4,396.1 L 224.0,398.8 L 222.3,398.3 L 220.2,397.0 L 219.3,394.8 L 215.9,395.5 L 215.0,397.1 L 216.2,398.0 L 214.5,400.7 L 211.6,399.3 L 209.6,400.4 L 207.2,400.9 L 206.1,401.7 L 203.6,402.0 L 202.9,402.9 L 202.8,407.3 L 199.8,407.2 L 197.9,408.2 L 195.8,410.8 L 193.3,409.5 L 192.4,410.2 L 190.0,409.8 L 187.6,410.6 L 187.3,412.3 L 185.3,413.9 L 181.8,412.8 L 180.4,413.3 L 178.2,413.1 L 175.8,412.4 L 175.4,408.6 L 177.1,405.7 L 172.3,404.6 L 175.1,401.7 L 174.9,396.4 L 175.7,394.8 L 175.1,393.2 L 173.5,392.3 L 174.9,388.9 L 178.6,386.7 L 174.7,385.5 L 174.9,383.7 L 176.7,382.8 L 176.5,381.7 L 178.0,378.8 L 176.5,374.0 Z" fill="#e8edf2" fill-opacity="1" stroke="#cbd5e1" stroke-width="0.5"/><path d="M 187.1,463.8 L 188.2,465.4 L 189.4,466.0 L 192.8,463.5 L 193.3,460.1 L 194.7,458.8 L 197.4,458.3 L 199.0,458.5 L 200.4,459.5 L 201.8,459.6 L 202.8,457.5 L 204.2,458.2 L 205.8,456.3 L 206.1,454.5 L 207.8,454.7 L 208.5,455.8 L 214.0,454.3 L 214.5,452.4 L 216.2,451.0 L 217.5,452.0 L 220.1,452.9 L 220.6,455.3 L 219.9,457.5 L 219.2,463.3 L 217.6,468.3 L 213.3,474.9 L 212.6,476.9 L 211.0,477.5 L 212.0,479.1 L 211.3,483.0 L 212.6,486.4 L 212.8,492.5 L 212.0,492.4 L 210.8,493.8 L 212.8,495.2 L 213.2,503.6 L 211.1,503.9 L 205.4,503.2 L 204.0,504.1 L 203.0,506.0 L 203.6,507.7 L 201.8,509.5 L 201.3,510.7 L 199.3,513.1 L 197.7,516.8 L 198.4,518.0 L 200.4,519.7 L 194.0,521.4 L 192.7,522.4 L 190.1,522.8 L 186.9,525.2 L 186.2,526.5 L 186.2,528.7 L 185.2,530.2 L 185.6,532.7 L 184.6,534.8 L 180.5,536.7 L 179.6,537.9 L 176.9,538.6 L 176.5,539.5 L 172.8,538.8 L 169.3,535.9 L 172.0,532.1 L 170.2,528.8 L 171.6,526.8 L 169.9,524.4 L 171.8,522.2 L 172.0,519.8 L 174.0,516.5 L 172.6,515.0 L 170.2,514.7 L 171.1,512.9 L 170.9,510.5 L 172.2,505.0 L 170.4,502.7 L 167.3,505.0 L 164.9,503.6 L 164.7,501.6 L 165.1,498.9 L 166.2,495.9 L 164.9,494.4 L 162.3,493.4 L 163.7,490.2 L 161.8,489.1 L 159.7,488.9 L 160.5,487.4 L 158.5,485.1 L 156.4,484.5 L 155.6,483.0 L 157.5,482.7 L 158.7,481.5 L 160.0,480.8 L 160.8,482.3 L 164.9,482.5 L 166.2,479.5 L 167.9,479.1 L 169.4,479.8 L 172.3,479.2 L 174.4,480.0 L 175.4,477.0 L 178.2,477.0 L 179.9,474.2 L 179.3,473.2 L 175.1,472.7 L 177.3,470.2 L 177.7,468.2 L 176.9,467.7 L 177.1,465.3 L 179.3,465.2 L 180.4,463.2 L 182.3,461.7 L 183.3,463.1 L 184.3,462.3 L 185.5,463.5 L 187.1,463.8 Z" fill="#f97316" fill-opacity="0.95" stroke="#c2410c" stroke-width="1"/><path d="M 408.2,273.3 L 409.2,277.4 L 409.8,279.1 L 409.4,282.1 L 408.6,284.5 L 408.8,285.9 L 407.1,285.7 L 405.6,287.3 L 403.6,286.7 L 404.1,289.9 L 402.1,291.2 L 401.0,293.2 L 401.9,296.2 L 400.2,297.9 L 397.7,298.2 L 396.0,293.6 L 394.9,294.8 L 394.0,293.6 L 392.8,289.8 L 391.4,287.9 L 391.3,285.7 L 392.3,285.7 L 392.4,283.4 L 394.7,279.7 L 397.4,280.3 L 398.8,279.8 L 399.2,278.5 L 400.5,277.5 L 403.1,279.2 L 404.1,275.2 L 406.4,275.3 L 408.2,273.3 Z" fill="#e8edf2" fill-opacity="1" stroke="#cbd5e1" stroke-width="0.5"/><path d="M 176.7,177.7 L 182.5,180.3 L 181.0,182.5 L 180.2,182.7 L 178.9,186.4 L 180.9,189.6 L 182.8,189.1 L 183.4,191.6 L 185.8,189.5 L 187.2,189.1 L 188.8,187.6 L 191.3,188.5 L 191.9,190.4 L 196.0,192.8 L 198.1,193.1 L 196.0,195.1 L 197.8,198.0 L 199.8,197.7 L 204.1,201.2 L 205.7,201.6 L 205.8,202.8 L 211.6,202.2 L 212.8,203.0 L 213.9,204.8 L 215.4,204.7 L 216.3,203.2 L 217.0,203.3 L 222.3,206.5 L 224.1,205.5 L 227.6,208.2 L 232.2,210.5 L 234.3,210.8 L 236.0,213.5 L 238.0,214.1 L 238.5,215.3 L 242.0,216.9 L 244.9,219.0 L 246.2,217.8 L 247.8,217.9 L 253.8,221.9 L 257.9,221.2 L 258.7,223.4 L 258.3,224.7 L 261.4,224.8 L 263.1,225.6 L 265.5,225.5 L 267.3,227.5 L 269.0,226.2 L 268.7,225.1 L 272.2,225.3 L 276.0,227.2 L 276.7,228.7 L 277.9,229.6 L 277.3,231.4 L 278.9,232.2 L 279.1,234.6 L 282.3,236.0 L 283.4,238.0 L 282.6,239.4 L 279.6,238.7 L 279.0,240.3 L 276.7,240.7 L 279.4,242.9 L 281.0,243.0 L 280.8,245.1 L 278.6,246.7 L 280.9,248.7 L 285.0,250.8 L 286.6,251.1 L 288.1,252.4 L 286.0,254.3 L 284.3,253.2 L 283.3,254.4 L 279.5,255.0 L 277.0,256.2 L 275.1,258.6 L 274.0,258.6 L 272.3,260.0 L 271.0,260.1 L 267.8,262.4 L 268.1,263.3 L 268.1,267.4 L 268.6,268.8 L 271.0,271.4 L 270.4,273.0 L 268.7,273.4 L 268.4,276.4 L 268.8,277.2 L 267.6,279.9 L 265.5,282.8 L 263.9,283.5 L 261.5,283.5 L 259.5,282.1 L 257.9,280.2 L 258.8,276.8 L 257.9,275.3 L 258.7,271.0 L 257.1,270.2 L 253.0,270.4 L 253.2,271.8 L 250.3,270.6 L 250.5,269.3 L 245.1,267.0 L 244.9,265.4 L 241.7,264.6 L 239.9,262.1 L 238.4,263.1 L 235.2,262.6 L 235.1,264.2 L 233.5,266.0 L 230.2,266.5 L 228.3,266.4 L 228.9,264.1 L 227.8,262.9 L 225.8,264.4 L 223.2,263.7 L 219.4,264.8 L 220.7,262.9 L 221.8,262.5 L 219.9,260.6 L 220.0,259.0 L 218.2,258.6 L 217.1,259.8 L 215.5,259.7 L 215.1,260.9 L 212.7,261.4 L 212.9,263.7 L 211.1,263.0 L 208.8,263.2 L 207.1,264.0 L 205.7,263.5 L 205.9,261.1 L 204.8,259.9 L 203.5,260.3 L 203.8,262.1 L 203.1,263.4 L 201.3,262.6 L 199.5,261.3 L 197.3,262.6 L 196.8,259.6 L 198.0,256.9 L 195.5,257.6 L 195.6,259.5 L 193.1,258.5 L 192.5,261.1 L 193.4,265.9 L 195.6,267.5 L 195.8,271.9 L 197.5,271.1 L 199.1,274.4 L 198.8,275.8 L 197.4,277.9 L 195.6,277.3 L 194.1,277.5 L 192.7,275.7 L 191.5,275.1 L 190.4,276.7 L 187.8,274.3 L 187.8,270.7 L 186.2,267.2 L 188.7,265.3 L 188.7,263.9 L 189.7,262.1 L 188.2,259.2 L 190.0,256.7 L 191.2,255.9 L 193.8,256.1 L 196.3,255.2 L 195.4,253.2 L 196.5,252.3 L 198.5,248.5 L 199.4,247.8 L 199.9,244.8 L 201.5,243.5 L 200.3,240.9 L 199.2,239.7 L 199.2,238.0 L 197.2,237.7 L 194.9,236.1 L 192.5,236.8 L 189.7,235.7 L 189.1,234.9 L 186.9,235.5 L 187.7,234.1 L 185.3,233.6 L 181.8,234.7 L 179.7,233.9 L 179.1,234.8 L 175.4,236.3 L 174.5,235.0 L 178.9,232.9 L 176.6,232.3 L 178.4,229.6 L 176.9,227.6 L 174.6,226.4 L 174.6,225.4 L 173.1,224.3 L 173.2,222.3 L 172.1,219.8 L 176.0,217.8 L 175.4,216.0 L 175.6,212.1 L 175.3,210.0 L 173.1,208.4 L 173.1,206.8 L 170.7,202.6 L 171.2,200.4 L 169.7,198.8 L 169.6,194.4 L 170.0,193.3 L 169.1,190.7 L 170.1,189.0 L 170.6,185.8 L 172.1,183.5 L 174.3,182.5 L 176.9,178.0 L 176.7,177.7 Z" fill="#e8edf2" fill-opacity="1" stroke="#cbd5e1" stroke-width="0.5"/><path d="M 216.3,203.2 L 215.4,204.7 L 213.9,204.8 L 212.8,203.0 L 211.6,202.2 L 205.8,202.8 L 205.7,201.6 L 204.1,201.2 L 199.8,197.7 L 197.8,198.0 L 196.0,195.1 L 198.1,193.1 L 196.0,192.8 L 191.9,190.4 L 191.3,188.5 L 188.8,187.6 L 187.2,189.1 L 185.8,189.5 L 183.4,191.6 L 182.8,189.1 L 180.9,189.6 L 178.9,186.4 L 180.2,182.7 L 181.0,182.5 L 182.5,180.3 L 176.7,177.7 L 180.4,176.0 L 179.3,174.6 L 180.1,173.5 L 178.7,171.8 L 180.2,170.4 L 180.4,168.6 L 181.8,165.6 L 185.0,165.0 L 189.2,163.4 L 191.0,164.8 L 193.0,164.2 L 193.8,164.9 L 196.1,164.7 L 197.3,166.3 L 199.3,166.2 L 197.9,163.9 L 200.1,160.5 L 201.4,161.0 L 203.3,163.3 L 203.9,165.3 L 205.4,166.2 L 205.9,167.5 L 207.3,167.4 L 208.6,169.0 L 211.1,168.0 L 212.8,168.4 L 213.8,169.8 L 217.6,171.1 L 218.9,172.3 L 218.5,174.9 L 221.5,175.7 L 223.4,176.9 L 224.4,176.4 L 226.8,177.8 L 229.5,180.7 L 229.0,182.2 L 225.8,185.0 L 224.7,184.9 L 223.9,186.7 L 221.0,188.3 L 221.8,190.1 L 220.7,192.1 L 219.0,193.3 L 220.2,195.4 L 219.5,198.2 L 217.4,198.8 L 217.3,200.4 L 216.1,201.8 L 216.3,203.2 Z" fill="#e8edf2" fill-opacity="1" stroke="#cbd5e1" stroke-width="0.5"/><path d="M 341.7,229.3 L 342.8,230.6 L 346.2,230.8 L 348.2,231.6 L 349.8,230.5 L 352.2,230.0 L 353.3,230.5 L 355.1,231.1 L 356.6,234.1 L 358.6,234.6 L 359.3,236.0 L 361.2,235.9 L 363.1,235.1 L 364.4,236.0 L 366.0,235.9 L 369.4,237.8 L 370.7,237.7 L 370.7,242.9 L 369.0,243.9 L 368.5,246.4 L 367.0,246.2 L 367.5,248.1 L 365.7,249.0 L 362.7,248.9 L 359.7,246.8 L 359.5,243.9 L 356.6,241.6 L 355.8,242.4 L 357.1,244.2 L 354.3,244.9 L 353.2,243.4 L 349.7,241.3 L 347.4,239.5 L 347.2,241.2 L 349.0,241.6 L 348.6,243.0 L 347.0,244.5 L 347.0,245.5 L 344.2,246.7 L 342.8,250.5 L 343.2,252.4 L 345.7,252.7 L 348.6,254.6 L 348.4,255.6 L 351.7,257.6 L 354.6,257.7 L 354.7,259.4 L 356.5,261.1 L 356.0,262.6 L 352.6,261.9 L 350.3,262.4 L 348.4,262.1 L 348.6,264.7 L 346.8,266.3 L 345.0,266.0 L 344.2,267.5 L 342.5,269.0 L 341.6,270.7 L 343.7,273.3 L 346.7,275.3 L 348.5,275.4 L 353.0,277.0 L 352.4,278.8 L 352.9,282.9 L 350.9,284.5 L 350.3,287.3 L 351.6,287.9 L 353.4,290.9 L 352.8,293.6 L 354.0,294.2 L 355.8,294.0 L 356.6,294.6 L 355.1,296.1 L 355.2,297.6 L 356.7,300.3 L 355.9,301.6 L 356.5,302.7 L 356.2,304.7 L 355.1,305.1 L 354.8,307.6 L 354.0,309.2 L 352.2,310.5 L 351.2,312.1 L 350.9,314.3 L 348.0,315.4 L 344.8,317.7 L 343.8,314.6 L 342.2,313.7 L 341.1,316.2 L 338.1,318.9 L 333.2,320.3 L 332.6,317.8 L 329.8,316.9 L 329.3,314.6 L 326.1,316.1 L 326.2,314.1 L 324.9,312.6 L 323.0,312.4 L 321.2,310.4 L 322.5,310.4 L 323.8,309.1 L 321.8,304.6 L 320.1,304.6 L 319.6,303.0 L 317.8,302.5 L 316.4,301.3 L 316.7,298.9 L 314.5,297.5 L 313.2,297.8 L 310.4,295.4 L 308.5,295.6 L 307.1,293.4 L 307.9,292.5 L 307.7,290.1 L 310.6,289.7 L 313.7,290.9 L 315.7,289.9 L 315.5,288.9 L 316.8,287.5 L 318.2,287.5 L 320.8,286.5 L 322.3,286.6 L 322.8,284.6 L 324.0,283.4 L 327.6,284.8 L 330.3,283.1 L 329.4,280.8 L 333.2,281.3 L 333.4,279.6 L 336.5,279.1 L 335.7,278.1 L 337.6,276.6 L 338.4,274.9 L 338.3,272.7 L 339.6,272.4 L 339.6,267.7 L 341.0,267.0 L 339.5,264.8 L 337.9,263.8 L 338.0,261.7 L 339.1,260.8 L 337.6,258.7 L 341.7,255.8 L 342.2,254.1 L 339.8,252.8 L 340.0,251.5 L 338.6,251.2 L 338.9,248.4 L 340.9,247.8 L 343.7,245.0 L 346.0,243.4 L 345.0,241.4 L 343.1,240.4 L 344.0,238.8 L 344.4,236.6 L 343.6,233.1 L 341.3,231.2 L 341.7,229.3 Z" fill="#e8edf2" fill-opacity="1" stroke="#cbd5e1" stroke-width="0.5"/><path d="M 343.6,315.9 L 344.1,318.1 L 343.1,320.0 L 342.0,319.2 L 343.6,315.9 Z" fill="#e8edf2" fill-opacity="1" stroke="#cbd5e1" stroke-width="0.5"/></g>
  <path d="M 186.8,489.8 Q 159.0,318.8 131.3,247.7" fill="none" stroke="#fbbf24" stroke-width="2.5" stroke-dasharray="8,5"/>
  <text x="159.0" y="310.8" text-anchor="middle" fill="#b45309" font-size="10" font-weight="700" font-family="Inter,sans-serif">Textile Corridor</text><circle cx="131.3" cy="247.7" r="5" fill="#fbbf24" stroke="#fff" stroke-width="2"/><circle cx="186.8" cy="489.8" r="5" fill="#fbbf24" stroke="#fff" stroke-width="2"/><circle cx="161.3" cy="353.3" r="5" fill="#fbbf24" stroke="#fff" stroke-width="2"/><circle cx="84.8" cy="304.6" r="5" fill="#fbbf24" stroke="#fff" stroke-width="2"/>
  <text x="131.3" y="235.7" text-anchor="middle" fill="#7c2d12" font-size="9" font-weight="800" font-family="Inter,sans-serif">Rajasthan</text>
  <text x="131.3" y="246.7" text-anchor="middle" fill="#9a3412" font-size="7" font-weight="600" font-family="Inter,sans-serif">Primary Hub</text>
  <text x="186.8" y="505.8" text-anchor="middle" fill="#7c2d12" font-size="9" font-weight="800" font-family="Inter,sans-serif">Tamil Nadu</text>
  <text x="186.8" y="516.8" text-anchor="middle" fill="#9a3412" font-size="7" font-weight="600" font-family="Inter,sans-serif">Origin Market</text>
  <text x="161.3" y="341.3" text-anchor="middle" fill="#7c2d12" font-size="9" font-weight="800" font-family="Inter,sans-serif">Maharashtra</text>
  <text x="161.3" y="352.3" text-anchor="middle" fill="#9a3412" font-size="7" font-weight="600" font-family="Inter,sans-serif">Network</text>
  <text x="84.8" y="292.6" text-anchor="middle" fill="#7c2d12" font-size="9" font-weight="800" font-family="Inter,sans-serif">Gujarat</text>
  <text x="84.8" y="303.6" text-anchor="middle" fill="#9a3412" font-size="7" font-weight="600" font-family="Inter,sans-serif">Corporate</text>
  <g transform="translate(20,558)">
    <rect width="200" height="32" rx="8" fill="white" stroke="#e2e8f0"/>
    <rect x="10" y="10" width="14" height="14" rx="3" fill="#f97316"/>
    <text x="30" y="21" fill="#334155" font-size="10" font-weight="600" font-family="Inter,sans-serif">Priority States</text>
    <rect x="110" y="10" width="14" height="14" rx="3" fill="#e8edf2" stroke="#cbd5e1"/>
    <text x="130" y="21" fill="#334155" font-size="10" font-weight="600" font-family="Inter,sans-serif">All India</text>
  </g>
</svg>